{
    "asset" : {
        "generator" : "Khronos glTF Blender I/O v1.2.75",
        "version" : "2.0"
    },
    "scene" : 0,
    "scenes" : [
        {
            "name" : "Scene",
            "nodes" : [
                0,
                1,
                2
            ]
        }
    ],
    "nodes" : [
        {
            "mesh" : 0,
            "name" : "Suzanne"
        },
        {
            "mesh" : 1,
            "name" : "Sphere"
        },
        {
            "mesh" : 2,
            "name" : "Sphere.001"
        }
    ],
    "meshes" : [
        {
            "name" : "Suzanne",
            "primitives" : [
                {
                    "attributes" : {
                        "POSITION" : 0,
                        "NORMAL" : 1,
                        "TEXCOORD_0" : 2
                    },
                    "indices" : 3
                }
            ]
        },
        {
            "name" : "Sphere",
            "primitives" : [
                {
                    "attributes" : {
                        "POSITION" : 4,
                        "NORMAL" : 5,
                        "TEXCOORD_0" : 6
                    },
                    "indices" : 7
                }
            ]
        },
        {
            "name" : "Sphere.001",
            "primitives" : [
                {
                    "attributes" : {
                        "POSITION" : 8,
                        "NORMAL" : 9,
                        "TEXCOORD_0" : 10
                    },
                    "indices" : 11
                }
            ]
        }
    ],
    "accessors" : [
        {
            "bufferView" : 0,
            "componentType" : 5126,
            "count" : 3321,
            "max" : [
                2.1444432735443115,
                1.5190328359603882,
                1.3299435377120972
            ],
            "min" : [
                -2.1444432735443115,
                -1.5695737600326538,
                -1.2586948871612549
            ],
            "type" : "VEC3"
        },
        {
            "bufferView" : 1,
            "componentType" : 5126,
            "count" : 3321,
            "type" : "VEC3"
        },
        {
            "bufferView" : 2,
            "componentType" : 5126,
            "count" : 3321,
            "type" : "VEC2"
        },
        {
            "bufferView" : 3,
            "componentType" : 5123,
            "count" : 11808,
            "type" : "SCALAR"
        },
        {
            "bufferView" : 4,
            "componentType" : 5126,
            "count" : 1984,
            "max" : [
                -0.2213641107082367,
                0.75135737657547,
                1.151679515838623
            ],
            "min" : [
                -0.9365636110305786,
                0.0361577607691288,
                0.43647995591163635
            ],
            "type" : "VEC3"
        },
        {
            "bufferView" : 5,
            "componentType" : 5126,
            "count" : 1984,
            "type" : "VEC3"
        },
        {
            "bufferView" : 6,
            "componentType" : 5126,
            "count" : 1984,
            "type" : "VEC2"
        },
        {
            "bufferView" : 7,
            "componentType" : 5123,
            "count" : 2880,
            "type" : "SCALAR"
        },
        {
            "bufferView" : 8,
            "componentType" : 5126,
            "count" : 1984,
            "max" : [
                0.9090968370437622,
                0.7513573169708252,
                1.151679515838623
            ],
            "min" : [
                0.19389736652374268,
                0.0361577570438385,
                0.43647998571395874
            ],
            "type" : "VEC3"
        },
        {
            "bufferView" : 9,
            "componentType" : 5126,
            "count" : 1984,
            "type" : "VEC3"
        },
        {
            "bufferView" : 10,
            "componentType" : 5126,
            "count" : 1984,
            "type" : "VEC2"
        },
        {
            "bufferView" : 11,
            "componentType" : 5123,
            "count" : 2880,
            "type" : "SCALAR"
        }
    ],
    "bufferViews" : [
        {
            "buffer" : 0,
            "byteLength" : 39852,
            "byteOffset" : 0
        },
        {
            "buffer" : 0,
            "byteLength" : 39852,
            "byteOffset" : 39852
        },
        {
            "buffer" : 0,
            "byteLength" : 26568,
            "byteOffset" : 79704
        },
        {
            "buffer" : 0,
            "byteLength" : 23616,
            "byteOffset" : 106272
        },
        {
            "buffer" : 0,
            "byteLength" : 23808,
            "byteOffset" : 129888
        },
        {
            "buffer" : 0,
            "byteLength" : 23808,
            "byteOffset" : 153696
        },
        {
            "buffer" : 0,
            "byteLength" : 15872,
            "byteOffset" : 177504
        },
        {
            "buffer" : 0,
            "byteLength" : 5760,
            "byteOffset" : 193376
        },
        {
            "buffer" : 0,
            "byteLength" : 23808,
            "byteOffset" : 199136
        },
        {
            "buffer" : 0,
            "byteLength" : 23808,
            "byteOffset" : 222944
        },
        {
            "buffer" : 0,
            "byteLength" : 15872,
            "byteOffset" : 246752
        },
        {
            "buffer" : 0,
            "byteLength" : 5760,
            "byteOffset" : 262624
        }
    ],
    "buffers" : [
        {
            "byteLength" : 268384,
            "uri" : "monkey5.bin"
        }
    ]
}
