{"accessors":[{"bufferView":0,"componentType":5121,"count":36,"max":[23],"min":[0],"type":"SCALAR"},{"bufferView":1,"componentType":5126,"count":24,"max":[0.4920731782913208,1.8898625373840332,0.4920731782913208],"min":[-0.4920731782913208,0.9057161808013916,-0.4920731782913208],"type":"VEC3"},{"bufferView":2,"componentType":5126,"count":24,"max":[0.9999999403953552,0.9999999403953552,0.9999999403953552],"min":[-0.9999999403953552,-0.9999999403953552,-0.9999999403953552],"type":"VEC3"},{"bufferView":3,"componentType":5126,"count":24,"max":[0.875,1.0],"min":[0.125,0.0],"type":"VEC2"},{"bufferView":4,"componentType":5123,"count":2880,"max":[2861],"min":[0],"type":"SCALAR"},{"bufferView":5,"componentType":5126,"count":2862,"max":[-0.2213641107082367,0.75135737657547,1.151679515838623],"min":[-0.9365636110305786,0.0361577607691288,0.43647995591163635],"type":"VEC3"},{"bufferView":6,"componentType":5126,"count":2862,"max":[0.9904383420944214,0.9904384016990662,0.9951388835906982],"min":[-0.9904383420944214,-0.9904384016990662,-0.99513840675354],"type":"VEC3"},{"bufferView":7,"componentType":5126,"count":2862,"max":[1.000000238418579,1.0],"min":[0.0,0.0],"type":"VEC2"},{"bufferView":8,"componentType":5123,"count":2880,"max":[2863],"min":[0],"type":"SCALAR"},{"bufferView":9,"componentType":5126,"count":2864,"max":[0.9090968370437622,0.7513573169708252,1.151679515838623],"min":[0.19389736652374268,0.0361577570438385,0.43647998571395874],"type":"VEC3"},{"bufferView":10,"componentType":5126,"count":2864,"max":[0.9904383420944214,0.9904384016990662,0.9951383471488953],"min":[-0.9904383420944214,-0.9904384016990662,-0.99513840675354],"type":"VEC3"},{"bufferView":11,"componentType":5126,"count":2864,"max":[1.000000238418579,1.0],"min":[0.0,0.0],"type":"VEC2"},{"bufferView":12,"componentType":5123,"count":11808,"max":[3320],"min":[0],"type":"SCALAR"},{"bufferView":13,"componentType":5126,"count":3321,"max":[2.1444432735443115,1.5190328359603882,1.3299435377120972],"min":[-2.1444432735443115,-1.5695737600326538,-1.2586948871612549],"type":"VEC3"},{"bufferView":14,"componentType":5126,"count":3321,"max":[0.9972698092460632,0.9999604821205139,0.9999102354049683],"min":[-0.9972942471504211,-0.993083119392395,-0.9999290704727173],"type":"VEC3"},{"bufferView":15,"componentType":5126,"count":3321,"max":[0.9954077005386353,0.9932345151901245],"min":[0.008298084139823914,0.10095101594924927],"type":"VEC2"}],"asset":{"generator":"Soft8Soft Verge3D for Blender add-on","version":"2.0"},"bufferViews":[{"buffer":0,"byteLength":36,"byteOffset":0,"target":34963},{"buffer":0,"byteLength":288,"byteOffset":36,"target":34962},{"buffer":0,"byteLength":288,"byteOffset":324,"target":34962},{"buffer":0,"byteLength":192,"byteOffset":612,"target":34962},{"buffer":0,"byteLength":5760,"byteOffset":804,"target":34963},{"buffer":0,"byteLength":34344,"byteOffset":6564,"target":34962},{"buffer":0,"byteLength":34344,"byteOffset":40908,"target":34962},{"buffer":0,"byteLength":22896,"byteOffset":75252,"target":34962},{"buffer":0,"byteLength":5760,"byteOffset":98148,"target":34963},{"buffer":0,"byteLength":34368,"byteOffset":103908,"target":34962},{"buffer":0,"byteLength":34368,"byteOffset":138276,"target":34962},{"buffer":0,"byteLength":22912,"byteOffset":172644,"target":34962},{"buffer":0,"byteLength":23616,"byteOffset":195556,"target":34963},{"buffer":0,"byteLength":39852,"byteOffset":219172,"target":34962},{"buffer":0,"byteLength":39852,"byteOffset":259024,"target":34962},{"buffer":0,"byteLength":26568,"byteOffset":298876,"target":34962}],"buffers":[{"byteLength":325444,"uri":"monkey6.bin"}],"cameras":[{"extensions":{"S8S_v3d_camera_data":{"controls":"ORBIT","enablePan":true,"moveSpeed":1.0,"orbitMaxDistance":100.0,"orbitMaxPolarAngle":3.1415927410125732,"orbitMinDistance":0.0,"orbitMinPolarAngle":0.0,"orbitTarget":[0.0,0.0,-0.0],"rotateSpeed":1.0,"viewportFitInitialAspect":1.7777777777777777,"viewportFitType":"AUTO"}},"name":"Camera","perspective":{"aspectRatio":1.7777777777777777,"yfov":0.39959652046304894,"zfar":100.0,"znear":0.10000000149011612},"type":"perspective"}],"extensions":{"S8S_v3d_data":{"lights":[{"color":[1.0,1.0,1.0],"constantAttenuation":1.0,"decay":2,"distance":31.622776955095866,"intensity":1000.0,"linearAttenuation":0.0,"name":"Light","profile":"blender","quadraticAttenuation":0.03162277624827173,"shadow":{"bias":-0.0018,"cameraFar":31.622776955095866,"cameraFov":0,"cameraNear":0.05000000074505806,"cameraOrthoBottom":-1,"cameraOrthoLeft":-1,"cameraOrthoRight":1,"cameraOrthoTop":1,"enabled":true,"mapSize":512,"radius":1.0,"slopeScaledBias":2.5},"type":"point"}]}},"extensionsUsed":["S8S_v3d_material_data","S8S_v3d_camera_data","S8S_v3d_data","S8S_v3d_mesh_data","S8S_v3d_node_data","S8S_v3d_scene_data"],"materials":[{"extensions":{"S8S_v3d_material_data":{"nodeGraph":{"edges":[{"fromNode":1,"fromOutput":0,"toInput":0,"toNode":0}],"nodes":[{"inputs":[[0,0,0,0],[0,0,0,0]],"is_active_output":true,"name":"World Output","outputs":[],"type":"OUTPUT_WORLD_BL"},{"inputs":[[0.05087608844041824,0.05087608844041824,0.05087608844041824,1.0],1.0],"is_active_output":false,"name":"Background","outputs":[[0,0,0,0]],"type":"BACKGROUND_BL"}]},"useCastShadows":true}},"name":"Verge3D_Environment_World"},{"emissiveFactor":[0.0,0.0,0.0],"extensions":{"S8S_v3d_material_data":{"nodeGraph":{"edges":[{"fromNode":1,"fromOutput":0,"toInput":0,"toNode":0}],"nodes":[{"inputs":[[0,0,0,0],[0,0,0,0],0.0],"is_active_output":true,"name":"Material Output","outputs":[],"type":"OUTPUT_MATERIAL_BL"},{"inputs":[[0.800000011920929,0.800000011920929,0.800000011920929,1.0],0.0,[0.0,0.0,0.0]],"is_active_output":false,"name":"Diffuse BSDF","outputs":[[0,0,0,0]],"type":"BSDF_DIFFUSE_BL"}]},"useCastShadows":true,"useShadows":true}},"name":"v3d_default_material"}],"meshes":[{"extensions":{"S8S_v3d_mesh_data":{"colorLayers":{},"uvLayers":{}}},"name":"Cube.001","primitives":[{"attributes":{"NORMAL":2,"POSITION":1,"TEXCOORD_0":3},"indices":0,"material":1,"mode":4}]},{"extensions":{"S8S_v3d_mesh_data":{"colorLayers":{},"uvLayers":{}}},"name":"Sphere","primitives":[{"attributes":{"NORMAL":6,"POSITION":5,"TEXCOORD_0":7},"indices":4,"material":1,"mode":4}]},{"extensions":{"S8S_v3d_mesh_data":{"colorLayers":{},"uvLayers":{}}},"name":"Sphere.001","primitives":[{"attributes":{"NORMAL":10,"POSITION":9,"TEXCOORD_0":11},"indices":8,"material":1,"mode":4}]},{"extensions":{"S8S_v3d_mesh_data":{"colorLayers":{},"uvLayers":{}}},"name":"Suzanne","primitives":[{"attributes":{"NORMAL":14,"POSITION":13,"TEXCOORD_0":15},"indices":12,"material":1,"mode":4}]}],"nodes":[{"extensions":{"S8S_v3d_node_data":{"frustumCulling":true,"groupNames":[],"hidden":false,"renderOrder":0,"useShadows":true}},"mesh":3,"name":"Suzanne"},{"camera":0,"extensions":{"S8S_v3d_node_data":{"frustumCulling":true,"groupNames":["Collection"],"hidden":false,"renderOrder":0}},"name":"Camera","rotation":[-0.2099730223417282,0.3857799768447876,0.09062845259904861,0.8937963247299194],"scale":[1.0,0.9999998807907104,0.9999998807907104],"translation":[7.358891487121582,4.958309173583984,6.925790786743164]},{"extensions":{"S8S_v3d_node_data":{"frustumCulling":true,"groupNames":["Collection"],"hidden":false,"light":0,"renderOrder":0}},"name":"Light","rotation":[-0.2841663062572479,0.7269423604011536,0.34203389286994934,0.5232754945755005],"scale":[0.9999999403953552,0.9999997615814209,0.9999998807907104],"translation":[4.076245307922363,5.903861999511719,-1.0054539442062378]},{"extensions":{"S8S_v3d_node_data":{"frustumCulling":true,"groupNames":[],"hidden":false,"renderOrder":0,"useShadows":true}},"mesh":1,"name":"Sphere"},{"extensions":{"S8S_v3d_node_data":{"frustumCulling":true,"groupNames":[],"hidden":false,"renderOrder":0,"useShadows":true}},"mesh":2,"name":"Sphere.001"},{"extensions":{"S8S_v3d_node_data":{"frustumCulling":true,"groupNames":["Collection"],"hidden":false,"renderOrder":0,"useShadows":true}},"mesh":0,"name":"Cube"}],"scene":0,"scenes":[{"extensions":{"S8S_v3d_scene_data":{"aaMethod":"AUTO","iblEnvironmentMode":"PMREM","physicallyCorrectLights":true,"pmremMaxTileSize":512,"shadowMap":{"renderReverseSided":false,"renderSingleSided":true,"type":"PCFPOISSON"},"toneMapping":{"type":"filmicBlender"},"worldMaterial":0}},"extras":{"animFrameRate":24,"coordSystem":"Z_UP_RIGHT"},"name":"Scene","nodes":[0,3,4,2,1,5]}]}
