{
    "asset" : {
        "generator" : "Khronos glTF Blender I/O v1.2.75",
        "version" : "2.0"
    },
    "scene" : 0,
    "scenes" : [
        {
            "name" : "Scene",
            "nodes" : [
                0
            ]
        }
    ],
    "nodes" : [
        {
            "mesh" : 0,
            "name" : "Suzanne"
        }
    ],
    "meshes" : [
        {
            "name" : "Suzanne",
            "primitives" : [
                {
                    "attributes" : {
                        "POSITION" : 0,
                        "NORMAL" : 1,
                        "TEXCOORD_0" : 2
                    },
                    "indices" : 3
                }
            ]
        }
    ],
    "accessors" : [
        {
            "bufferView" : 0,
            "componentType" : 5126,
            "count" : 7289,
            "max" : [
                2.1444432735443115,
                1.5190328359603882,
                1.3299435377120972
            ],
            "min" : [
                -2.1444432735443115,
                -1.5695737600326538,
                -1.2586948871612549
            ],
            "type" : "VEC3"
        },
        {
            "bufferView" : 1,
            "componentType" : 5126,
            "count" : 7289,
            "type" : "VEC3"
        },
        {
            "bufferView" : 2,
            "componentType" : 5126,
            "count" : 7289,
            "type" : "VEC2"
        },
        {
            "bufferView" : 3,
            "componentType" : 5123,
            "count" : 17568,
            "type" : "SCALAR"
        }
    ],
    "bufferViews" : [
        {
            "buffer" : 0,
            "byteLength" : 87468,
            "byteOffset" : 0
        },
        {
            "buffer" : 0,
            "byteLength" : 87468,
            "byteOffset" : 87468
        },
        {
            "buffer" : 0,
            "byteLength" : 58312,
            "byteOffset" : 174936
        },
        {
            "buffer" : 0,
            "byteLength" : 35136,
            "byteOffset" : 233248
        }
    ],
    "buffers" : [
        {
            "byteLength" : 268384,
            "uri" : "monkey4.bin"
        }
    ]
}
